<?xml version="1.0" encoding="UTF-8"?>
<!DOCTYPE svg PUBLIC "-//W3C//DTD SVG 1.1//EN" "http://www.w3.org/Graphics/SVG/1.1/DTD/svg11.dtd">
<!-- Creator: CorelDRAW X7 -->
<svg xmlns="http://www.w3.org/2000/svg" xml:space="preserve" width="128px" height="128px" version="1.1" style="shape-rendering:geometricPrecision; text-rendering:geometricPrecision; image-rendering:optimizeQuality; fill-rule:evenodd; clip-rule:evenodd"
viewBox="0 0 128 128"
 xmlns:xlink="http://www.w3.org/1999/xlink">
 <defs>
  <style type="text/css">
   <![CDATA[
    .fil1 {fill:#FEFEFE}
    .fil0 {fill:#2B3E50}
   ]]>
  </style>
 </defs>
 <g id="Слой_x0020_1">
  <metadata id="CorelCorpID_0Corel-Layer"/>
  <g id="_323512486736">
   <polygon class="fil0" points="0,0 128,0 128,128 0,128 "/>
   <path class="fil1" d="M55 27c5,0 4,-1 7,-1l0 23c-6,-2 -15,-11 -25,0 -5,6 -5,13 -7,20 -3,9 -10,9 -10,5 0,-5 6,-3 6,-6 0,-1 -1,-1 -1,-2 -3,-2 -7,0 -9,2 -2,2 -4,6 -2,9 1,2 2,4 4,5 3,0 6,0 8,2l4 5c1,0 1,0 1,1l13 13c0,0 0,0 1,1l14 14c0,0 0,0 0,0 1,1 0,0 0,1 1,0 2,1 2,1l3 3 3 -3c0,0 1,-1 2,-1 0,-1 -1,0 0,-1 0,0 0,0 0,0l14 -14c1,-1 1,-1 1,-1l13 -13c0,-1 0,-1 1,-1l4 -5c2,-2 5,-2 8,-2 2,-1 3,-3 4,-5 2,-3 0,-7 -2,-9 -2,-2 -6,-4 -9,-2 0,1 -1,1 -1,2 0,3 6,1 6,6 0,4 -7,4 -10,-5 -2,-7 -2,-14 -7,-20 -10,-11 -19,-2 -25,0l0 -23c3,0 2,1 7,1 -1,-2 -3,-5 -4,-8 -2,-3 -4,-11 -4,-14l-1 0 -1 0c0,3 -2,11 -4,14 -1,3 -3,6 -4,8zm11 30l0 38 3 3 0 13 30 -30c-4,-4 -6,-6 -9,-14 -1,-4 -3,-10 -7,-12 -2,-2 -6,-3 -17,2zm-4 0l0 38 -3 3 0 13 -30 -30c4,-4 6,-6 9,-14 1,-4 3,-10 7,-12 2,-2 6,-3 17,2z"/>
  </g>
 </g>
</svg>
