<?xml version="1.0" encoding="UTF-8"?>
<!DOCTYPE svg PUBLIC "-//W3C//DTD SVG 1.1//EN" "http://www.w3.org/Graphics/SVG/1.1/DTD/svg11.dtd">
<!-- Creator: CorelDRAW X7 -->
<svg xmlns="http://www.w3.org/2000/svg" xml:space="preserve" width="130px" height="152px" version="1.1" style="shape-rendering:geometricPrecision; text-rendering:geometricPrecision; image-rendering:optimizeQuality; fill-rule:evenodd; clip-rule:evenodd"
viewBox="0 0 130 152"
 xmlns:xlink="http://www.w3.org/1999/xlink">
 <defs>
  <style type="text/css">
   <![CDATA[
    .fil0 {fill:#FEFEFE}
   ]]>
  </style>
 </defs>
 <g id="Слой_x0020_1">
  <metadata id="CorelCorpID_0Corel-Layer"/>
  <path class="fil0" d="M54 29c6,0 4,-1 9,-2l0 30c-8,-2 -20,-15 -32,-1 -7,9 -6,17 -10,26 -4,12 -12,12 -12,7 0,-7 7,-4 7,-8 0,-1 -1,-2 -1,-2 -4,-3 -9,0 -11,2 -3,3 -5,8 -3,12 1,3 2,5 6,6 3,1 6,0 9,3l6 6c0,0 0,1 0,1l17 17c1,0 1,1 1,1l19 18c0,1 0,1 0,1 1,1 -1,-1 0,0 1,1 2,1 2,2l4 4 4 -4c0,-1 1,-1 2,-2 1,-1 -1,1 0,0 0,0 0,0 0,-1l19 -18c0,0 0,-1 1,-1l17 -17c0,0 0,-1 0,-1l6 -6c3,-3 6,-2 9,-3 4,-1 5,-3 6,-6 2,-4 0,-9 -3,-12 -2,-2 -7,-5 -11,-2 0,0 -1,1 -1,2 0,4 7,1 7,8 0,5 -8,5 -12,-7 -4,-9 -3,-17 -10,-26 -12,-14 -24,-1 -32,1l0 -30c5,1 3,2 9,2 0,-3 -4,-7 -5,-10 -2,-5 -5,-14 -5,-19l-1 0 -1 0c0,5 -3,14 -5,19 -1,3 -5,7 -5,10zm14 38l0 48 3 4 0 17 38 -39c-4,-5 -7,-7 -10,-17 -2,-6 -4,-12 -9,-16 -3,-2 -8,-3 -22,3zm-6 0l0 48 -3 4 0 17 -38 -39c4,-5 7,-7 10,-17 2,-6 4,-12 9,-16 3,-2 8,-3 22,3z"/>
 </g>
</svg>
